<svg xmlns="http://www.w3.org/2000/svg" aria-hidden="true" style="position:absolute;width:0;height:0;overflow:hidden"><defs><symbol id="icon-opsgenie"viewBox="0 0 32 32"><path d="m16.003 0 .103-.001a7.985 7.985 0 0 1 0 15.968l-.109-.001h.006A7.985 7.985 0 0 1 15.997 0h.006zm12.964 17.368h-.04l-6.036-2.989a.893.893 0 0 0-1.166.353l-.002.004a30.133 30.133 0 0 1-5.713 6.931l-.028.025a30.074 30.074 0 0 1-5.64-6.8l-.075-.133a.896.896 0 0 0-1.173-.356l.005-.002-6.047 2.968h-.04a.894.894 0 0 0-.328 1.207l-.002-.005c1.757 3.009 3.767 5.605 6.067 7.911l-.001-.001-.003.001c.032.033.067.064.1.096.447.447.901.885 1.369 1.308.108.099.22.192.329.289.42.371.843.74 1.28 1.093.192.156.393.303.588.455.369.288.736.579 1.116.852a37.8 37.8 0 0 0 1.795 1.223c.195.126.434.201.69.201.241 0 .466-.066.659-.182l-.006.003a37.694 37.694 0 0 0 1.904-1.307c.091-.067.176-.137.267-.204.477-.355.951-.716 1.413-1.093.312-.253.613-.52.917-.784.227-.196.453-.388.675-.589a39.82 39.82 0 0 0 1.152-1.1c.081-.08.169-.157.251-.239l-.005-.003a38.583 38.583 0 0 0 5.988-7.751l.098-.181a.894.894 0 0 0-.354-1.2l-.005-.002z"/></symbol></defs></svg>